<mxfile host="Electron" agent="Mozilla/5.0 (Windows NT 10.0; Win64; x64) AppleWebKit/537.36 (KHTML, like Gecko) draw.io/26.0.15 Chrome/132.0.6834.196 Electron/34.2.0 Safari/537.36" version="26.0.15">
  <diagram name="Page-1" id="UsQMgYk28u6j1lLH92lO">
    <mxGraphModel dx="1195" dy="797" grid="1" gridSize="10" guides="1" tooltips="1" connect="1" arrows="1" fold="1" page="1" pageScale="1" pageWidth="850" pageHeight="1100" background="#ffffff" math="0" shadow="1">
      <root>
        <mxCell id="0" />
        <mxCell id="1" parent="0" />
        <mxCell id="dRRMxG5hqSLSWfOtqPPx-3" value="" style="edgeStyle=orthogonalEdgeStyle;rounded=0;orthogonalLoop=1;jettySize=auto;html=1;startArrow=classic;startFill=1;fillColor=#60a917;strokeColor=#2D7600;" edge="1" parent="1" source="dRRMxG5hqSLSWfOtqPPx-1" target="dRRMxG5hqSLSWfOtqPPx-2">
          <mxGeometry relative="1" as="geometry" />
        </mxCell>
        <mxCell id="dRRMxG5hqSLSWfOtqPPx-4" value="POST" style="edgeLabel;html=1;align=right;verticalAlign=bottom;resizable=0;points=[];labelPosition=left;verticalLabelPosition=top;textDirection=ltr;labelBackgroundColor=none;textShadow=0;fontColor=#4D4D4D;" vertex="1" connectable="0" parent="dRRMxG5hqSLSWfOtqPPx-3">
          <mxGeometry x="-0.22" y="-1" relative="1" as="geometry">
            <mxPoint x="36" y="-1" as="offset" />
          </mxGeometry>
        </mxCell>
        <mxCell id="dRRMxG5hqSLSWfOtqPPx-1" value="AccountController" style="rounded=0;whiteSpace=wrap;html=1;fillColor=#60a917;fontColor=#ffffff;strokeColor=#2D7600;" vertex="1" parent="1">
          <mxGeometry x="200" y="470" width="120" height="60" as="geometry" />
        </mxCell>
        <mxCell id="dRRMxG5hqSLSWfOtqPPx-2" value="/create" style="rounded=0;whiteSpace=wrap;html=1;fillColor=#1ba1e2;fontColor=#ffffff;strokeColor=#006EAF;" vertex="1" parent="1">
          <mxGeometry x="510" y="470" width="120" height="60" as="geometry" />
        </mxCell>
        <mxCell id="dRRMxG5hqSLSWfOtqPPx-12" value="" style="edgeStyle=orthogonalEdgeStyle;rounded=0;orthogonalLoop=1;jettySize=auto;html=1;" edge="1" parent="1" source="dRRMxG5hqSLSWfOtqPPx-10" target="dRRMxG5hqSLSWfOtqPPx-11">
          <mxGeometry relative="1" as="geometry" />
        </mxCell>
        <mxCell id="dRRMxG5hqSLSWfOtqPPx-10" value="AccountController" style="rounded=0;whiteSpace=wrap;html=1;fillColor=#60a917;fontColor=#ffffff;strokeColor=#2D7600;" vertex="1" parent="1">
          <mxGeometry x="80" y="660" width="120" height="60" as="geometry" />
        </mxCell>
        <mxCell id="dRRMxG5hqSLSWfOtqPPx-14" value="" style="edgeStyle=orthogonalEdgeStyle;rounded=0;orthogonalLoop=1;jettySize=auto;html=1;" edge="1" parent="1" source="dRRMxG5hqSLSWfOtqPPx-11" target="dRRMxG5hqSLSWfOtqPPx-13">
          <mxGeometry relative="1" as="geometry" />
        </mxCell>
        <mxCell id="dRRMxG5hqSLSWfOtqPPx-11" value="IAccountService" style="rounded=0;whiteSpace=wrap;html=1;fillColor=#0050ef;fontColor=#ffffff;strokeColor=#001DBC;" vertex="1" parent="1">
          <mxGeometry x="280" y="660" width="120" height="60" as="geometry" />
        </mxCell>
        <mxCell id="dRRMxG5hqSLSWfOtqPPx-16" style="edgeStyle=orthogonalEdgeStyle;rounded=0;orthogonalLoop=1;jettySize=auto;html=1;" edge="1" parent="1" source="dRRMxG5hqSLSWfOtqPPx-13" target="dRRMxG5hqSLSWfOtqPPx-15">
          <mxGeometry relative="1" as="geometry" />
        </mxCell>
        <mxCell id="dRRMxG5hqSLSWfOtqPPx-13" value="AccountRepository" style="rounded=0;whiteSpace=wrap;html=1;fillColor=#d80073;fontColor=#ffffff;strokeColor=#A50040;" vertex="1" parent="1">
          <mxGeometry x="480" y="660" width="120" height="60" as="geometry" />
        </mxCell>
        <mxCell id="dRRMxG5hqSLSWfOtqPPx-15" value="testDB" style="strokeWidth=2;html=1;shape=mxgraph.flowchart.database;whiteSpace=wrap;fillColor=#e3c800;fontColor=#000000;strokeColor=#B09500;" vertex="1" parent="1">
          <mxGeometry x="750" y="660" width="60" height="60" as="geometry" />
        </mxCell>
      </root>
    </mxGraphModel>
  </diagram>
</mxfile>
